<svg width="24" height="25" viewBox="0 0 24 25" fill="none" xmlns="http://www.w3.org/2000/svg">
<path fill-rule="evenodd" clip-rule="evenodd" d="M16 6C17.25 6 18.5 4.75 18.5 3.5C18.5 4.75 19.75 6 21 6C19.75 6 18.5 7.25 18.5 8.5C18.5 7.25 17.25 6 16 6ZM19 14C20.25 14 21.5 12.75 21.5 11.5C21.5 12.75 22.75 14 24 14C22.75 14 21.5 15.25 21.5 16.5C21.5 15.25 20.25 14 19 14ZM14.5 8.5C14.5 9.75 13.25 11 12 11C13.25 11 14.5 12.25 14.5 13.5C14.5 12.25 15.75 11 17 11C15.75 11 14.5 9.75 14.5 8.5Z" fill="#F2F2F2"/>
<path fill-rule="evenodd" clip-rule="evenodd" d="M10.793 3.43632C3.60821 3.50134 -0.917741 11.4605 2.33552 17.7599C3.98833 20.9603 7.42859 22.8055 10.8093 23.0713C14.2042 23.3382 17.774 22.0198 19.5244 18.6016C19.7088 18.2415 19.6581 17.8059 19.396 17.4978C19.134 17.1898 18.7124 17.07 18.3276 17.194L18.3272 17.1941L18.327 17.1942L18.3167 17.1974C18.3061 17.2007 18.2885 17.206 18.2643 17.2132C18.2159 17.2274 18.141 17.2488 18.0428 17.2747C17.8461 17.3265 17.557 17.3962 17.1993 17.4638C16.4801 17.5998 15.5032 17.7237 14.4528 17.686C12.3434 17.6103 10.1189 16.9044 8.88706 14.5383C7.63144 12.1263 8.20242 9.85747 9.17719 8.08824C9.6646 7.20358 10.2403 6.47259 10.6974 5.96108C10.9249 5.70658 11.1201 5.50968 11.2558 5.37865C11.3236 5.31322 11.3764 5.26445 11.4106 5.23337C11.4277 5.21784 11.4402 5.20675 11.4475 5.20023L11.454 5.19455L11.4545 5.19408L11.4548 5.1939L11.4549 5.19373L11.4553 5.19346C11.7727 4.91965 11.8856 4.47686 11.7381 4.08438C11.5903 3.69138 11.2128 3.43252 10.793 3.43632Z" fill="#F2F2F2"/>
</svg>
