<svg width="24" height="25" viewBox="0 0 24 25" fill="none" xmlns="http://www.w3.org/2000/svg">
<path fill-rule="evenodd" clip-rule="evenodd" d="M12 5.5C8.13401 5.5 5 8.63401 5 12.5C5 16.366 8.13401 19.5 12 19.5C15.866 19.5 19 16.366 19 12.5C19 8.63401 15.866 5.5 12 5.5Z" fill="#494949"/>
<path fill-rule="evenodd" clip-rule="evenodd" d="M12 4.5C11.4477 4.5 11 4.05228 11 3.5V2C11 1.44772 11.4477 1 12 1C12.5523 1 13 1.44772 13 2V3.5C13 4.05228 12.5523 4.5 12 4.5ZM3 11.5C3.55228 11.5 4 11.9477 4 12.5C4 13.0523 3.55228 13.5 3 13.5H1.5C0.947715 13.5 0.5 13.0523 0.5 12.5C0.5 11.9477 0.947715 11.5 1.5 11.5H3ZM21 11.5C20.4477 11.5 20 11.9477 20 12.5C20 13.0523 20.4477 13.5 21 13.5H22.5C23.0523 13.5 23.5 13.0523 23.5 12.5C23.5 11.9477 23.0523 11.5 22.5 11.5H21ZM11 21.5C11 20.9477 11.4477 20.5 12 20.5C12.5523 20.5 13 20.9477 13 21.5V23C13 23.5523 12.5523 24 12 24C11.4477 24 11 23.5523 11 23V21.5ZM17.7323 6.76765C17.3418 6.37713 17.3418 5.74396 17.7323 5.35344L18.793 4.29278C19.1835 3.90226 19.8167 3.90226 20.2072 4.29278C20.5977 4.6833 20.5977 5.31647 20.2072 5.70699L19.1466 6.76765C18.756 7.15818 18.1229 7.15818 17.7323 6.76765ZM4.85355 18.2322C5.24408 17.8417 5.87724 17.8417 6.26777 18.2322C6.65829 18.6228 6.65829 19.2559 6.26777 19.6464L5.20711 20.7071C4.81658 21.0976 4.18342 21.0976 3.79289 20.7071C3.40237 20.3166 3.40237 19.6834 3.79289 19.2929L4.85355 18.2322ZM17.7929 18.2929C18.1834 17.9024 18.8166 17.9024 19.2071 18.2929L20.2678 19.3536C20.6583 19.7441 20.6583 20.3772 20.2678 20.7678C19.8772 21.1583 19.2441 21.1583 18.8536 20.7678L17.7929 19.7071C17.4024 19.3166 17.4024 18.6834 17.7929 18.2929ZM6.20711 5.29289C6.59763 5.68342 6.59763 6.31658 6.20711 6.70711C5.81658 7.09763 5.18342 7.09763 4.79289 6.70711L3.73223 5.64645C3.34171 5.25592 3.34171 4.62276 3.73223 4.23223C4.12276 3.84171 4.75592 3.84171 5.14645 4.23223L6.20711 5.29289Z" fill="#494949"/>
</svg>
