<svg width="590" height="574" viewBox="0 0 590 574" fill="none" xmlns="http://www.w3.org/2000/svg">
<rect x="18" y="19" width="554" height="535" rx="29" fill="white"/>
<path d="M278 92L278 184.579" stroke="#3CDBA2" stroke-width="23.1448" stroke-linecap="round"/>
<path d="M328.148 92L328.148 184.579" stroke="#3CDBA2" stroke-width="23.1448" stroke-linecap="round"/>
<path d="M278 92H328.147" stroke="#3CDBA2" stroke-width="23.1448" stroke-linecap="round"/>
<path d="M278 138.29H324.29" stroke="#3CDBA2" stroke-width="23.1448" stroke-linecap="round"/>
<path d="M277 242.229L300 288.229" stroke="#3CDBA2" stroke-width="23.1448" stroke-linecap="round"/>
<path d="M328.79 242L301.788 292.147L301.788 332.651" stroke="#3CDBA2" stroke-width="23.1448" stroke-linecap="round"/>
<path d="M186 390L165 390C164.448 390 164 390.448 164 391L164 481C164 481.552 164.448 482 165 482L186 482C200.359 482 212 470.359 212 456L212 416C212 401.641 200.359 390 186 390Z" fill="#0045FF" stroke="#3CDBA2" stroke-width="23.1448" stroke-linecap="round"/>
<path d="M278 435.29L278 396.715C278 392.454 281.454 389 285.715 389L316.575 389M278 435.29L278 473.864C278 478.125 281.454 481.579 285.715 481.579L316.575 481.579M278 435.29L316.575 435.29" stroke="#3CDBA2" stroke-width="23.1448" stroke-linecap="round"/>
<path d="M372 389L399.002 479.651" stroke="#3CDBA2" stroke-width="23.1448" stroke-linecap="round"/>
<path d="M427.934 389L400.931 479.651" stroke="#3CDBA2" stroke-width="23.1448" stroke-linecap="round"/>
<path d="M38.5747 0C17.2705 0 0 17.2705 0 38.5747V534.842C0 556.147 17.2705 573.417 38.5747 573.417H551.425C572.73 573.417 590 556.147 590 534.842V38.5746C590 17.2704 572.73 0 551.425 0H38.5747Z" fill="#0045FF"/>
<path d="M97.707 92.2083L97.707 184.788" stroke="white" stroke-width="23.1448" stroke-linecap="round"/>
<path d="M97.707 242.071L97.707 334.65" stroke="white" stroke-width="23.1448" stroke-linecap="round"/>
<path d="M398.783 92.2083L398.783 184.788" stroke="white" stroke-width="23.1448" stroke-linecap="round"/>
<path d="M401.483 240.721L401.483 333.3" stroke="white" stroke-width="23.1448" stroke-linecap="round"/>
<path d="M278 435.523L278 396.948C278 392.687 281.454 389.233 285.715 389.233L316.575 389.233M278 435.523L278 474.098C278 478.359 281.454 481.813 285.715 481.813L316.575 481.813M278 435.523L316.575 435.523" stroke="#3CDBA2" stroke-width="23.1448" stroke-linecap="round"/>
<path d="M372.165 389.233L399.167 479.884" stroke="#3CDBA2" stroke-width="23.1448" stroke-linecap="round"/>
<path d="M428.099 389.233L401.096 479.884" stroke="#3CDBA2" stroke-width="23.1448" stroke-linecap="round"/>
<path d="M278.236 92.2083L278.236 184.788" stroke="#3CDBA2" stroke-width="23.1448" stroke-linecap="round"/>
<path d="M328.384 92.2083L328.384 184.788" stroke="#3CDBA2" stroke-width="23.1448" stroke-linecap="round"/>
<path d="M278.236 92.2083H328.383" stroke="#3CDBA2" stroke-width="23.1448" stroke-linecap="round"/>
<path d="M278.236 138.498H324.526" stroke="#3CDBA2" stroke-width="23.1448" stroke-linecap="round"/>
<path d="M465.038 321.728L465.038 252.293C465.038 245.902 470.22 240.721 476.611 240.721L501.684 240.721C508.076 240.721 513.257 245.902 513.257 252.293L513.257 321.728C513.257 328.119 508.076 333.3 501.684 333.3L476.611 333.3C470.22 333.3 465.038 328.119 465.038 321.728Z" stroke="white" stroke-width="23.1448" stroke-linecap="round"/>
<path d="M163.862 323.078L163.862 253.643C163.862 247.252 169.043 242.071 175.435 242.071L200.508 242.071C206.899 242.071 212.081 247.252 212.081 253.643L212.081 323.078C212.081 329.469 206.899 334.65 200.508 334.65L175.435 334.65C169.043 334.65 163.862 329.469 163.862 323.078Z" stroke="white" stroke-width="23.1448" stroke-linecap="round"/>
<path d="M465.038 173.215L465.038 103.781C465.038 97.3894 470.22 92.2083 476.611 92.2083L501.684 92.2083C508.076 92.2083 513.257 97.3894 513.257 103.781L513.257 173.215C513.257 179.606 508.076 184.788 501.684 184.788L476.611 184.788C470.22 184.788 465.038 179.606 465.038 173.215Z" stroke="white" stroke-width="23.1448" stroke-linecap="round"/>
<path d="M163.862 173.215L163.862 103.781C163.862 97.3894 169.043 92.2083 175.435 92.2083L200.508 92.2083C206.899 92.2083 212.081 97.3894 212.081 103.781L212.081 173.215C212.081 179.606 206.899 184.788 200.508 184.788L175.435 184.788C169.043 184.788 163.862 179.606 163.862 173.215Z" stroke="white" stroke-width="23.1448" stroke-linecap="round"/>
<path d="M186 390L165 390C164.448 390 164 390.448 164 391L164 481C164 481.552 164.448 482 165 482L186 482C200.359 482 212 470.359 212 456L212 416C212 401.641 200.359 390 186 390Z" stroke="#3CDBA2" stroke-width="23.1448" stroke-linecap="round"/>
<path d="M121.29 406L74.9999 436.86" stroke="white" stroke-width="23.1448" stroke-linecap="round"/>
<path d="M121.29 465.79L75.139 437" stroke="white" stroke-width="23.1448" stroke-linecap="round"/>
<path d="M467 406L513.29 436.86" stroke="white" stroke-width="23.1448" stroke-linecap="round"/>
<path d="M467 465.79L513.151 437" stroke="white" stroke-width="23.1448" stroke-linecap="round"/>
<path d="M277 242.229L300 288.229" stroke="#3CDBA2" stroke-width="23.1448" stroke-linecap="round"/>
<path d="M328.79 242L301.788 292.147L301.788 332.651" stroke="#3CDBA2" stroke-width="23.1448" stroke-linecap="round"/>
</svg>
