<?xml version="1.0" standalone="no"?>
<!DOCTYPE svg PUBLIC "-//W3C//DTD SVG 20010904//EN"
 "http://www.w3.org/TR/2001/REC-SVG-20010904/DTD/svg10.dtd">
<svg version="1.0" xmlns="http://www.w3.org/2000/svg"
 width="590.000000pt" height="590.000000pt" viewBox="0 0 590.000000 590.000000"
 preserveAspectRatio="xMidYMid meet">
<metadata>
Created by potrace 1.14, written by Peter Selinger 2001-2017
</metadata>
<g transform="translate(0.000000,590.000000) scale(0.100000,-0.100000)"
fill="#000000" stroke="none">
<path d="M285 5806 c-115 -36 -198 -108 -248 -214 l-32 -67 0 -2570 0 -2570
24 -59 c16 -41 42 -77 85 -120 63 -63 82 -75 161 -102 47 -17 415 -19 2695
-18 2377 0 2600 2 2650 17 132 39 224 133 264 268 14 47 16 315 16 2595 0
1699 -4 2545 -10 2549 -6 4 -8 10 -5 14 16 27 -118 221 -154 221 -6 0 -11 3
-11 8 0 9 -40 27 -105 47 -44 13 -358 15 -2670 14 -2085 0 -2628 -3 -2660 -13z"/>
</g>
</svg>
